<svg id="kity_svg_6" xmlns="http://www.w3.org/2000/svg" xmlns:xlink="http://www.w3.org/1999/xlink" version="1.1" width="951" height="958" style="background: rgb(251, 251, 251); visibility: visible;" viewBox="0 0 951 958"><defs id="kity_defs_7"><linearGradient id="kity_linearGradient_17" x1="0" y1="0" x2="0" y2="1"><stop id="kity_stop_18" offset="0" stop-color="rgb(255, 255, 255)"></stop><stop id="kity_stop_19" offset="1" stop-color="rgb(204, 204, 204)"></stop></linearGradient><marker id="kity_marker_2" orient="auto" refX="6" refY="0" viewBox="-7 -7 14 14" markerWidth="7" markerHeight="7" markerUnits="userSpaceOnUse"><path id="kity_path_3" fill="rgb(123, 115, 191)" stroke="none" d="M6,0A6,6,0,1,1,-6,0A6,6,0,1,1,6,0"></path></marker></defs><g id="kity_g_8"><g id="minder1" text-rendering="optimize-speed"><g id="minder_connect_group1"><path id="kity_path_71" fill="none" stroke="rgb(123, 115, 191)" stroke-width="1" d="M140.5,588.5A238,202,0,0,0,378.5,790.5"></path><path id="kity_path_79" fill="none" stroke="rgb(123, 115, 191)" stroke-width="1" d="M516.5,790.5C536.5,790.5,536.5,732.5,556.5,732.5"></path><path id="kity_path_87" fill="none" stroke="rgb(123, 115, 191)" stroke-width="1" d="M516.5,790.5C536.5,790.5,536.5,790.5,556.5,790.5"></path><path id="kity_path_95" fill="none" stroke="rgb(123, 115, 191)" stroke-width="1" d="M516.5,790.5C536.5,790.5,536.5,848.5,556.5,848.5"></path><path id="kity_path_103" fill="none" stroke="rgb(123, 115, 191)" stroke-width="1" d="M140.5,588.5A238,332,0,0,0,378.5,920.5"></path><path id="kity_path_111" fill="none" stroke="rgb(123, 115, 191)" stroke-width="1" d="M492.5,920.5C512.5,920.5,512.5,920.5,532.5,920.5"></path><path id="kity_path_119" fill="none" stroke="rgb(123, 115, 191)" stroke-width="1" d="M140.5,588.5A238,331,0,0,1,378.5,257.5"></path><path id="kity_path_127" fill="none" stroke="rgb(123, 115, 191)" stroke-width="1" d="M516.5,257.5C536.5,257.5,536.5,89.5,556.5,89.5"></path><path id="kity_path_135" fill="none" stroke="rgb(123, 115, 191)" stroke-width="1" d="M695.5,89.5C715.5,89.5,715.5,33.5,735.5,33.5"></path><path id="kity_path_143" fill="none" stroke="rgb(123, 115, 191)" stroke-width="1" d="M695.5,89.5C715.5,89.5,715.5,89.5,735.5,89.5"></path><path id="kity_path_151" fill="none" stroke="rgb(123, 115, 191)" stroke-width="1" d="M516.5,257.5C536.5,257.5,536.5,257.5,556.5,257.5"></path><path id="kity_path_159" fill="none" stroke="rgb(123, 115, 191)" stroke-width="1" d="M710.5,257.5C730.5,257.5,730.5,201.5,750.5,201.5"></path><path id="kity_path_167" fill="none" stroke="rgb(123, 115, 191)" stroke-width="1" d="M710.5,257.5C730.5,257.5,730.5,257.5,750.5,257.5"></path><path id="kity_path_175" fill="none" stroke="rgb(123, 115, 191)" stroke-width="1" d="M710.5,257.5C730.5,257.5,730.5,313.5,750.5,313.5"></path><path id="kity_path_183" fill="none" stroke="rgb(123, 115, 191)" stroke-width="1" d="M516.5,257.5C536.5,257.5,536.5,425.5,556.5,425.5"></path><path id="kity_path_191" fill="none" stroke="rgb(123, 115, 191)" stroke-width="1" d="M671.5,425.5C691.5,425.5,691.5,425.5,711.5,425.5"></path><path id="kity_path_199" fill="none" stroke="rgb(123, 115, 191)" stroke-width="1" d="M671.5,425.5C691.5,425.5,691.5,369.5,711.5,369.5"></path><path id="kity_path_207" fill="none" stroke="rgb(123, 115, 191)" stroke-width="1" d="M671.5,425.5C691.5,425.5,691.5,481.5,711.5,481.5"></path><path id="kity_path_215" fill="none" stroke="rgb(123, 115, 191)" stroke-width="1" d="M695.5,89.5C715.5,89.5,715.5,145.5,735.5,145.5"></path><path id="kity_path_223" fill="none" stroke="rgb(123, 115, 191)" stroke-width="1" d="M140.5,588.5A238,18,0,0,0,378.5,606.5"></path><path id="kity_path_231" fill="none" stroke="rgb(123, 115, 191)" stroke-width="1" d="M516.5,606.5C536.5,606.5,536.5,548.5,556.5,548.5"></path><path id="kity_path_247" fill="none" stroke="rgb(123, 115, 191)" stroke-width="1" d="M516.5,606.5C536.5,606.5,536.5,606.5,556.5,606.5"></path><path id="kity_path_255" fill="none" stroke="rgb(123, 115, 191)" stroke-width="1" d="M516.5,606.5C536.5,606.5,536.5,664.5,556.5,664.5"></path></g><g id="minder_node1"><path id="node_outline1" fill="rgb(123, 115, 191)" stroke="rgb(123, 115, 191)" d="M25.5,560.5h230a5,5,0,0,1,5,5v46a5,5,0,0,1,-5,5h-230a5,5,0,0,1,-5,-5v-46a5,5,0,0,1,5,-5z" stroke-width="3"></path><g id="node_text1" fill="white"><text id="kity_text_22" text-rendering="inherit" font-size="32" dy=".8em" y="567.6999998092651" font-family="微软雅黑,Microsoft YaHei" x="44.5">基本算法思想</text></g></g><g id="kity_g_12"><path id="kity_path_13" fill="none" stroke="none" d="M44.5,588.5h0v0h0z"></path></g><g id="kity_g_14"><path id="kity_path_15" fill="none" stroke="none" d="M44.5,588.5h0v0h0z"></path><path id="kity_path_16" fill="none" stroke="none"></path></g><g id="minder_node7"><g id="node_expander6" style="cursor: pointer;"><path id="kity_path_76" fill="white" stroke="gray" d="M379.5,790.5A6,6,0,1,1,367.5,790.5A6,6,0,1,1,379.5,790.5"></path><path id="kity_path_77" fill="none" stroke="gray" d="M369,790.5L378,790.5"></path></g><path id="node_outline7" fill="rgb(239, 238, 246)" stroke="rgb(123, 115, 191)" d="M383.5,772.5h130a3,3,0,0,1,3,3v30a3,3,0,0,1,-3,3h-130a3,3,0,0,1,-3,-3v-30a3,3,0,0,1,3,-3z" stroke-width="1"></path><g id="node_text7" fill="black"><text id="kity_text_73" text-rendering="inherit" font-size="24" dy=".8em" y="774.9000000953674" x="400.5">优化算法</text></g></g><g id="minder_node8"><g id="node_expander7" style="cursor: pointer;" display="none"><path id="kity_path_84" fill="white" stroke="gray" d="M556.5,732.5A6,6,0,1,1,544.5,732.5A6,6,0,1,1,556.5,732.5"></path><path id="kity_path_85" fill="none" stroke="gray"></path></g><path id="node_outline8" fill="none" stroke="none" d="M561.5,718.5h112a5,5,0,0,1,5,5v18a5,5,0,0,1,-5,5h-112a5,5,0,0,1,-5,-5v-18a5,5,0,0,1,5,-5z" stroke-width="3"></path><g id="node_text8" fill="black"><text id="kity_text_81" text-rendering="inherit" font-size="18" dy=".8em" y="720.7999999523163" x="566.5">动态规划 DP</text></g></g><g id="minder_node9"><g id="node_expander8" style="cursor: pointer;" display="none"><path id="kity_path_92" fill="white" stroke="gray" d="M556.5,790.5A6,6,0,1,1,544.5,790.5A6,6,0,1,1,556.5,790.5"></path><path id="kity_path_93" fill="none" stroke="gray"></path></g><path id="node_outline9" fill="none" stroke="none" d="M561.5,776.5h114a5,5,0,0,1,5,5v18a5,5,0,0,1,-5,5h-114a5,5,0,0,1,-5,-5v-18a5,5,0,0,1,5,-5z" stroke-width="3"></path><g id="node_text9" fill="black"><text id="kity_text_89" text-rendering="inherit" font-size="18" dy=".8em" y="778.7999999523163" x="566.5">贪心 Greedy</text></g></g><g id="minder_node10"><g id="node_expander9" style="cursor: pointer;" display="none"><path id="kity_path_100" fill="white" stroke="gray" d="M556.5,848.5A6,6,0,1,1,544.5,848.5A6,6,0,1,1,556.5,848.5"></path><path id="kity_path_101" fill="none" stroke="gray"></path></g><path id="node_outline10" fill="none" stroke="none" d="M561.5,834.5h101a5,5,0,0,1,5,5v18a5,5,0,0,1,-5,5h-101a5,5,0,0,1,-5,-5v-18a5,5,0,0,1,5,-5z" stroke-width="3"></path><g id="node_text10" fill="black"><text id="kity_text_97" text-rendering="inherit" font-size="18" dy=".8em" y="836.7999999523163" x="566.5">启发式算法</text></g></g><g id="minder_node11"><g id="node_expander10" style="cursor: pointer;"><path id="kity_path_108" fill="white" stroke="gray" d="M379.5,920.5A6,6,0,1,1,367.5,920.5A6,6,0,1,1,379.5,920.5"></path><path id="kity_path_109" fill="none" stroke="gray" d="M369,920.5L378,920.5"></path></g><path id="node_outline11" fill="rgb(239, 238, 246)" stroke="rgb(123, 115, 191)" d="M383.5,902.5h106a3,3,0,0,1,3,3v30a3,3,0,0,1,-3,3h-106a3,3,0,0,1,-3,-3v-30a3,3,0,0,1,3,-3z" stroke-width="1"></path><g id="node_text11" fill="black"><text id="kity_text_105" text-rendering="inherit" font-size="24" dy=".8em" y="904.9000000953674" x="400.5">穷举法</text></g></g><g id="minder_node12"><g id="node_expander11" style="cursor: pointer;" display="none"><path id="kity_path_116" fill="white" stroke="gray" d="M532.5,920.5A6,6,0,1,1,520.5,920.5A6,6,0,1,1,532.5,920.5"></path><path id="kity_path_117" fill="none" stroke="gray"></path></g><path id="node_outline12" fill="none" stroke="none" d="M537.5,906.5h161a5,5,0,0,1,5,5v18a5,5,0,0,1,-5,5h-161a5,5,0,0,1,-5,-5v-18a5,5,0,0,1,5,-5z" stroke-width="3"></path><g id="node_text12" fill="black"><text id="kity_text_113" text-rendering="inherit" font-size="18" dy=".8em" y="908.7999999523163" x="542.5">回溯 Backtracking</text></g></g><g id="minder_node13"><g id="node_expander12" style="cursor: pointer;"><path id="kity_path_124" fill="white" stroke="gray" d="M379.5,257.5A6,6,0,1,1,367.5,257.5A6,6,0,1,1,379.5,257.5"></path><path id="kity_path_125" fill="none" stroke="gray" d="M369,257.5L378,257.5"></path></g><path id="node_outline13" fill="rgb(239, 238, 246)" stroke="rgb(123, 115, 191)" d="M383.5,239.5h130a3,3,0,0,1,3,3v30a3,3,0,0,1,-3,3h-130a3,3,0,0,1,-3,-3v-30a3,3,0,0,1,3,-3z" stroke-width="1"></path><g id="node_text13" fill="black"><text id="kity_text_121" text-rendering="inherit" font-size="24" dy=".8em" y="241.90000009536743" x="400.5">排序算法</text></g></g><g id="minder_node14"><g id="node_expander13" style="cursor: pointer;"><path id="kity_path_132" fill="white" stroke="gray" d="M556.5,89.5A6,6,0,1,1,544.5,89.5A6,6,0,1,1,556.5,89.5"></path><path id="kity_path_133" fill="none" stroke="gray" d="M546,89.5L555,89.5"></path></g><path id="node_outline14" fill="none" stroke="none" d="M561.5,75.5h129a5,5,0,0,1,5,5v18a5,5,0,0,1,-5,5h-129a5,5,0,0,1,-5,-5v-18a5,5,0,0,1,5,-5z" stroke-width="3"></path><g id="node_text14" fill="black"><text id="kity_text_129" text-rendering="inherit" font-size="18" dy=".8em" y="77.79999995231628" x="566.5">Time - o(n^2)</text></g></g><g id="minder_node15"><g id="node_expander14" style="cursor: pointer;" display="none"><path id="kity_path_140" fill="white" stroke="gray" d="M735.5,33.5A6,6,0,1,1,723.5,33.5A6,6,0,1,1,735.5,33.5"></path><path id="kity_path_141" fill="none" stroke="gray"></path></g><path id="node_outline15" fill="none" stroke="none" d="M740.5,20.5h183a5,5,0,0,1,5,5v16a5,5,0,0,1,-5,5h-183a5,5,0,0,1,-5,-5v-16a5,5,0,0,1,5,-5z" stroke-width="3"></path><g id="node_text15" fill="black"><text id="kity_text_137" text-rendering="inherit" font-size="16" dy=".8em" y="23.09999990463257" x="745.5">插入排序 Insertion Sort</text></g></g><g id="minder_node16"><g id="node_expander15" style="cursor: pointer;" display="none"><path id="kity_path_148" fill="white" stroke="gray" d="M735.5,89.5A6,6,0,1,1,723.5,89.5A6,6,0,1,1,735.5,89.5"></path><path id="kity_path_149" fill="none" stroke="gray"></path></g><path id="node_outline16" fill="none" stroke="none" d="M740.5,76.5h186a5,5,0,0,1,5,5v16a5,5,0,0,1,-5,5h-186a5,5,0,0,1,-5,-5v-16a5,5,0,0,1,5,-5z" stroke-width="3"></path><g id="node_text16" fill="black"><text id="kity_text_145" text-rendering="inherit" font-size="16" dy=".8em" y="79.09999990463257" x="745.5">选择排序 Selection Sort</text></g></g><g id="minder_node17"><g id="node_expander16" style="cursor: pointer;"><path id="kity_path_156" fill="white" stroke="gray" d="M556.5,257.5A6,6,0,1,1,544.5,257.5A6,6,0,1,1,556.5,257.5"></path><path id="kity_path_157" fill="none" stroke="gray" d="M546,257.5L555,257.5"></path></g><path id="node_outline17" fill="none" stroke="none" d="M561.5,243.5h144a5,5,0,0,1,5,5v18a5,5,0,0,1,-5,5h-144a5,5,0,0,1,-5,-5v-18a5,5,0,0,1,5,-5z" stroke-width="3"></path><g id="node_text17" fill="black"><text id="kity_text_153" text-rendering="inherit" font-size="18" dy=".8em" y="245.79999995231628" x="566.5">Time - o(nlogn)</text></g></g><g id="minder_node18"><g id="node_expander17" style="cursor: pointer;" display="none"><path id="kity_path_164" fill="white" stroke="gray" d="M750.5,201.5A6,6,0,1,1,738.5,201.5A6,6,0,1,1,750.5,201.5"></path><path id="kity_path_165" fill="none" stroke="gray"></path></g><path id="node_outline18" fill="none" stroke="none" d="M755.5,188.5h166a5,5,0,0,1,5,5v16a5,5,0,0,1,-5,5h-166a5,5,0,0,1,-5,-5v-16a5,5,0,0,1,5,-5z" stroke-width="3"></path><g id="node_text18" fill="black"><text id="kity_text_161" text-rendering="inherit" font-size="16" dy=".8em" y="191.09999990463257" x="760.5">归并排序 Merge Sort</text></g></g><g id="minder_node19"><g id="node_expander18" style="cursor: pointer;" display="none"><path id="kity_path_172" fill="white" stroke="gray" d="M750.5,257.5A6,6,0,1,1,738.5,257.5A6,6,0,1,1,750.5,257.5"></path><path id="kity_path_173" fill="none" stroke="gray"></path></g><path id="node_outline19" fill="none" stroke="none" d="M755.5,244.5h141a5,5,0,0,1,5,5v16a5,5,0,0,1,-5,5h-141a5,5,0,0,1,-5,-5v-16a5,5,0,0,1,5,-5z" stroke-width="3"></path><g id="node_text19" fill="black"><text id="kity_text_169" text-rendering="inherit" font-size="16" dy=".8em" y="247.09999990463257" x="760.5">堆排序 Heap Sort</text></g></g><g id="minder_node20"><g id="node_expander19" style="cursor: pointer;" display="none"><path id="kity_path_180" fill="white" stroke="gray" d="M750.5,313.5A6,6,0,1,1,738.5,313.5A6,6,0,1,1,750.5,313.5"></path><path id="kity_path_181" fill="none" stroke="gray"></path></g><path id="node_outline20" fill="none" stroke="none" d="M755.5,300.5h160a5,5,0,0,1,5,5v16a5,5,0,0,1,-5,5h-160a5,5,0,0,1,-5,-5v-16a5,5,0,0,1,5,-5z" stroke-width="3"></path><g id="node_text20" fill="black"><text id="kity_text_177" text-rendering="inherit" font-size="16" dy=".8em" y="303.09999990463257" x="760.5">快速排序 Quick Sort</text></g></g><g id="minder_node21"><g id="node_expander20" style="cursor: pointer;"><path id="kity_path_188" fill="white" stroke="gray" d="M556.5,425.5A6,6,0,1,1,544.5,425.5A6,6,0,1,1,556.5,425.5"></path><path id="kity_path_189" fill="none" stroke="gray" d="M546,425.5L555,425.5"></path></g><path id="node_outline21" fill="none" stroke="none" d="M561.5,411.5h105a5,5,0,0,1,5,5v18a5,5,0,0,1,-5,5h-105a5,5,0,0,1,-5,-5v-18a5,5,0,0,1,5,-5z" stroke-width="3"></path><g id="node_text21" fill="black"><text id="kity_text_185" text-rendering="inherit" font-size="18" dy=".8em" y="413.7999999523163" x="566.5">Time - o(n)</text></g></g><g id="minder_node22"><g id="node_expander21" style="cursor: pointer;" display="none"><path id="kity_path_196" fill="white" stroke="gray" d="M711.5,425.5A6,6,0,1,1,699.5,425.5A6,6,0,1,1,711.5,425.5"></path><path id="kity_path_197" fill="none" stroke="gray"></path></g><path id="node_outline22" fill="none" stroke="none" d="M716.5,412.5h152a5,5,0,0,1,5,5v16a5,5,0,0,1,-5,5h-152a5,5,0,0,1,-5,-5v-16a5,5,0,0,1,5,-5z" stroke-width="3"></path><g id="node_text22" fill="black"><text id="kity_text_193" text-rendering="inherit" font-size="16" dy=".8em" y="415.09999990463257" x="721.5">桶排序 Bucket Sort</text></g></g><g id="minder_node23"><g id="node_expander22" style="cursor: pointer;" display="none"><path id="kity_path_204" fill="white" stroke="gray" d="M711.5,369.5A6,6,0,1,1,699.5,369.5A6,6,0,1,1,711.5,369.5"></path><path id="kity_path_205" fill="none" stroke="gray"></path></g><path id="node_outline23" fill="none" stroke="none" d="M716.5,356.5h186a5,5,0,0,1,5,5v16a5,5,0,0,1,-5,5h-186a5,5,0,0,1,-5,-5v-16a5,5,0,0,1,5,-5z" stroke-width="3"></path><g id="node_text23" fill="black"><text id="kity_text_201" text-rendering="inherit" font-size="16" dy=".8em" y="359.09999990463257" x="721.5">计数排序 Counting Sort</text></g></g><g id="minder_node24"><g id="node_expander23" style="cursor: pointer;" display="none"><path id="kity_path_212" fill="white" stroke="gray" d="M711.5,481.5A6,6,0,1,1,699.5,481.5A6,6,0,1,1,711.5,481.5"></path><path id="kity_path_213" fill="none" stroke="gray"></path></g><path id="node_outline24" fill="none" stroke="none" d="M716.5,468.5h157a5,5,0,0,1,5,5v16a5,5,0,0,1,-5,5h-157a5,5,0,0,1,-5,-5v-16a5,5,0,0,1,5,-5z" stroke-width="3"></path><g id="node_text24" fill="black"><text id="kity_text_209" text-rendering="inherit" font-size="16" dy=".8em" y="471.09999990463257" x="721.5">基数排序 Radix Sort</text></g></g><g id="minder_node25"><g id="node_expander24" style="cursor: pointer;" display="none"><path id="kity_path_220" fill="white" stroke="gray" d="M735.5,145.5A6,6,0,1,1,723.5,145.5A6,6,0,1,1,735.5,145.5"></path><path id="kity_path_221" fill="none" stroke="gray"></path></g><path id="node_outline25" fill="none" stroke="none" d="M740.5,132.5h169a5,5,0,0,1,5,5v16a5,5,0,0,1,-5,5h-169a5,5,0,0,1,-5,-5v-16a5,5,0,0,1,5,-5z" stroke-width="3"></path><g id="node_text25" fill="black"><text id="kity_text_217" text-rendering="inherit" font-size="16" dy=".8em" y="135.09999990463257" x="745.5">冒泡排序 Bubble Sort</text></g></g><g id="minder_node26"><g id="node_expander25" style="cursor: pointer;"><path id="kity_path_228" fill="white" stroke="gray" d="M379.5,606.5A6,6,0,1,1,367.5,606.5A6,6,0,1,1,379.5,606.5"></path><path id="kity_path_229" fill="none" stroke="gray" d="M369,606.5L378,606.5"></path></g><path id="node_outline26" fill="rgb(239, 238, 246)" stroke="rgb(123, 115, 191)" d="M383.5,588.5h130a3,3,0,0,1,3,3v30a3,3,0,0,1,-3,3h-130a3,3,0,0,1,-3,-3v-30a3,3,0,0,1,3,-3z" stroke-width="1"></path><g id="node_text26" fill="black"><text id="kity_text_225" text-rendering="inherit" font-size="24" dy=".8em" y="590.9000000953674" x="400.5">搜索算法</text></g></g><g id="minder_node27"><g id="node_expander26" style="cursor: pointer;" display="none"><path id="kity_path_236" fill="white" stroke="gray" d="M556.5,548.5A6,6,0,1,1,544.5,548.5A6,6,0,1,1,556.5,548.5"></path><path id="kity_path_237" fill="none" stroke="gray"></path></g><path id="node_outline27" fill="none" stroke="none" d="M561.5,534.5h82a5,5,0,0,1,5,5v18a5,5,0,0,1,-5,5h-82a5,5,0,0,1,-5,-5v-18a5,5,0,0,1,5,-5z" stroke-width="3"></path><g id="node_text27" fill="black"><text id="kity_text_233" text-rendering="inherit" font-size="18" dy=".8em" y="536.7999999523163" x="566.5">二分查找</text></g></g><g id="minder_node29"><g id="node_expander28" style="cursor: pointer;" display="none"><path id="kity_path_252" fill="white" stroke="gray" d="M556.5,606.5A6,6,0,1,1,544.5,606.5A6,6,0,1,1,556.5,606.5"></path><path id="kity_path_253" fill="none" stroke="gray"></path></g><path id="node_outline29" fill="none" stroke="none" d="M561.5,592.5h44a5,5,0,0,1,5,5v18a5,5,0,0,1,-5,5h-44a5,5,0,0,1,-5,-5v-18a5,5,0,0,1,5,-5z" stroke-width="3"></path><g id="node_text29" fill="black"><text id="kity_text_249" text-rendering="inherit" font-size="18" dy=".8em" y="594.7999999523163" x="566.5">DFS</text></g></g><g id="minder_node30"><g id="node_expander29" style="cursor: pointer;" display="none"><path id="kity_path_260" fill="white" stroke="gray" d="M556.5,664.5A6,6,0,1,1,544.5,664.5A6,6,0,1,1,556.5,664.5"></path><path id="kity_path_261" fill="none" stroke="gray"></path></g><path id="node_outline30" fill="none" stroke="none" d="M561.5,650.5h41a5,5,0,0,1,5,5v18a5,5,0,0,1,-5,5h-41a5,5,0,0,1,-5,-5v-18a5,5,0,0,1,5,-5z" stroke-width="3"></path><g id="node_text30" fill="black"><text id="kity_text_257" text-rendering="inherit" font-size="18" dy=".8em" y="652.7999999523163" x="566.5">BFS</text></g></g></g></g></svg>