<svg id="kity_svg_6" xmlns="http://www.w3.org/2000/svg" xmlns:xlink="http://www.w3.org/1999/xlink" version="1.1" width="669" height="852" style="background: rgb(251, 251, 251); visibility: visible;" viewBox="0 0 669 852"><defs id="kity_defs_7"><linearGradient id="kity_linearGradient_17" x1="0" y1="0" x2="0" y2="1"><stop id="kity_stop_18" offset="0" stop-color="rgb(255, 255, 255)"></stop><stop id="kity_stop_19" offset="1" stop-color="rgb(204, 204, 204)"></stop></linearGradient><marker id="kity_marker_2" orient="auto" refX="6" refY="0" viewBox="-7 -7 14 14" markerWidth="7" markerHeight="7" markerUnits="userSpaceOnUse"><path id="kity_path_3" fill="rgb(123, 115, 191)" stroke="none" d="M6,0A6,6,0,1,1,-6,0A6,6,0,1,1,6,0"></path></marker></defs><g id="kity_g_8"><g id="minder1" text-rendering="optimize-speed"><g id="minder_connect_group1"><path id="kity_path_31" fill="none" stroke="rgb(123, 115, 191)" stroke-width="1" d="M108.5,455.5A206,334,0,0,1,314.5,121.5"></path><path id="kity_path_33" fill="none" stroke="rgb(123, 115, 191)" stroke-width="1" d="M404.5,121.5C424.5,121.5,424.5,34.5,444.5,34.5"></path><path id="kity_path_35" fill="none" stroke="rgb(123, 115, 191)" stroke-width="1" d="M404.5,121.5C424.5,121.5,424.5,92.5,444.5,92.5"></path><path id="kity_path_37" fill="none" stroke="rgb(123, 115, 191)" stroke-width="1" d="M404.5,121.5C424.5,121.5,424.5,150.5,444.5,150.5"></path><path id="kity_path_39" fill="none" stroke="rgb(123, 115, 191)" stroke-width="1" d="M404.5,121.5C424.5,121.5,424.5,208.5,444.5,208.5"></path><path id="kity_path_41" fill="none" stroke="rgb(123, 115, 191)" stroke-width="1" d="M108.5,455.5A206,92,0,0,1,314.5,363.5"></path><path id="kity_path_43" fill="none" stroke="rgb(123, 115, 191)" stroke-width="1" d="M429.5,363.5C449.5,363.5,449.5,276.5,469.5,276.5"></path><path id="kity_path_45" fill="none" stroke="rgb(123, 115, 191)" stroke-width="1" d="M429.5,363.5C449.5,363.5,449.5,334.5,469.5,334.5"></path><path id="kity_path_47" fill="none" stroke="rgb(123, 115, 191)" stroke-width="1" d="M429.5,363.5C449.5,363.5,449.5,392.5,469.5,392.5"></path><path id="kity_path_51" fill="none" stroke="rgb(123, 115, 191)" stroke-width="1" d="M108.5,455.5A206,150,0,0,0,314.5,605.5"></path><path id="kity_path_53" fill="none" stroke="rgb(123, 115, 191)" stroke-width="1" d="M380.5,605.5C400.5,605.5,400.5,518.5,420.5,518.5"></path><path id="kity_path_55" fill="none" stroke="rgb(123, 115, 191)" stroke-width="1" d="M380.5,605.5C400.5,605.5,400.5,576.5,420.5,576.5"></path><path id="kity_path_57" fill="none" stroke="rgb(123, 115, 191)" stroke-width="1" d="M380.5,605.5C400.5,605.5,400.5,634.5,420.5,634.5"></path><path id="kity_path_59" fill="none" stroke="rgb(123, 115, 191)" stroke-width="1" d="M380.5,605.5C400.5,605.5,400.5,692.5,420.5,692.5"></path><path id="kity_path_61" fill="none" stroke="rgb(123, 115, 191)" stroke-width="1" d="M108.5,455.5A206,334,0,0,0,314.5,789.5"></path><path id="kity_path_63" fill="none" stroke="rgb(123, 115, 191)" stroke-width="1" d="M380.5,789.5C400.5,789.5,400.5,760.5,420.5,760.5"></path><path id="kity_path_65" fill="none" stroke="rgb(123, 115, 191)" stroke-width="1" d="M380.5,789.5C400.5,789.5,400.5,818.5,420.5,818.5"></path><path id="kity_path_183" fill="none" stroke="rgb(123, 115, 191)" stroke-width="1" d="M429.5,363.5C449.5,363.5,449.5,450.5,469.5,450.5"></path><path id="kity_path_191" fill="none" stroke="rgb(123, 115, 191)" stroke-width="1" d="M525.5,450.5C545.5,450.5,545.5,450.5,565.5,450.5"></path><path id="kity_path_199" fill="none" stroke="rgb(123, 115, 191)" stroke-width="1" d="M525.5,334.5C545.5,334.5,545.5,334.5,565.5,334.5"></path></g><g id="minder_node1"><path id="node_outline1" fill="rgb(123, 115, 191)" stroke="rgb(123, 115, 191)" d="M25.5,427.5h166a5,5,0,0,1,5,5v46a5,5,0,0,1,-5,5h-166a5,5,0,0,1,-5,-5v-46a5,5,0,0,1,5,-5z" stroke-width="3"></path><g id="node_text1" fill="white"><text id="kity_text_22" text-rendering="inherit" font-size="32" dy=".8em" y="434.69999980926514" font-weight="bold" x="44.5">数据结构</text></g></g><g id="kity_g_12"><path id="kity_path_13" fill="none" stroke="none" d="M44.5,455.5h0v0h0z"></path></g><g id="kity_g_14"><path id="kity_path_15" fill="none" stroke="none" d="M44.5,455.5h0v0h0z"></path><path id="kity_path_16" fill="none" stroke="none"></path></g><g id="minder_node2"><g id="node_expander5" style="cursor: pointer;"><path id="kity_path_133" fill="white" stroke="gray" d="M315.5,121.5A6,6,0,1,1,303.5,121.5A6,6,0,1,1,315.5,121.5"></path><path id="kity_path_134" fill="none" stroke="gray" d="M305,121.5L314,121.5"></path></g><path id="node_outline6" fill="rgb(239, 238, 246)" stroke="rgb(123, 115, 191)" d="M319.5,103.5h82a3,3,0,0,1,3,3v30a3,3,0,0,1,-3,3h-82a3,3,0,0,1,-3,-3v-30a3,3,0,0,1,3,-3z" stroke-width="1"></path><g id="node_text6" fill="black"><text id="kity_text_75" text-rendering="inherit" font-size="24" dy=".8em" font-weight="bold" y="105.90000009536743" x="336.5">集合</text></g></g><g id="minder_node3"><g id="node_expander1" style="cursor: pointer;" display="none"><path id="kity_path_121" fill="white" stroke="gray" d="M444.5,34.5A6,6,0,1,1,432.5,34.5A6,6,0,1,1,444.5,34.5"></path><path id="kity_path_122" fill="none" stroke="gray"></path></g><path id="node_outline2" fill="none" stroke="none" d="M449.5,20.5h47a5,5,0,0,1,5,5v18a5,5,0,0,1,-5,5h-47a5,5,0,0,1,-5,-5v-18a5,5,0,0,1,5,-5z"></path><g id="node_text2" fill="black"><text id="kity_text_67" text-rendering="inherit" font-size="18" dy=".8em" y="22.799999952316284" x="454.5">交集</text></g></g><g id="minder_node4"><g id="node_expander2" style="cursor: pointer;" display="none"><path id="kity_path_124" fill="white" stroke="gray" d="M444.5,92.5A6,6,0,1,1,432.5,92.5A6,6,0,1,1,444.5,92.5"></path><path id="kity_path_125" fill="none" stroke="gray"></path></g><path id="node_outline3" fill="none" stroke="none" d="M449.5,78.5h47a5,5,0,0,1,5,5v18a5,5,0,0,1,-5,5h-47a5,5,0,0,1,-5,-5v-18a5,5,0,0,1,5,-5z"></path><g id="node_text3" fill="black"><text id="kity_text_69" text-rendering="inherit" font-size="18" dy=".8em" y="80.79999995231628" x="454.5">并集</text></g></g><g id="minder_node5"><g id="node_expander3" style="cursor: pointer;" display="none"><path id="kity_path_127" fill="white" stroke="gray" d="M444.5,150.5A6,6,0,1,1,432.5,150.5A6,6,0,1,1,444.5,150.5"></path><path id="kity_path_128" fill="none" stroke="gray"></path></g><path id="node_outline4" fill="none" stroke="none" d="M449.5,136.5h47a5,5,0,0,1,5,5v18a5,5,0,0,1,-5,5h-47a5,5,0,0,1,-5,-5v-18a5,5,0,0,1,5,-5z"></path><g id="node_text4" fill="black"><text id="kity_text_71" text-rendering="inherit" font-size="18" dy=".8em" y="138.79999995231628" x="454.5">补集</text></g></g><g id="minder_node6"><g id="node_expander4" style="cursor: pointer;" display="none"><path id="kity_path_130" fill="white" stroke="gray" d="M444.5,208.5A6,6,0,1,1,432.5,208.5A6,6,0,1,1,444.5,208.5"></path><path id="kity_path_131" fill="none" stroke="gray"></path></g><path id="node_outline5" fill="none" stroke="none" d="M449.5,194.5h65a5,5,0,0,1,5,5v18a5,5,0,0,1,-5,5h-65a5,5,0,0,1,-5,-5v-18a5,5,0,0,1,5,-5z"></path><g id="node_text5" fill="black"><text id="kity_text_73" text-rendering="inherit" font-size="18" dy=".8em" y="196.79999995231628" x="454.5">异或集</text></g></g><g id="minder_node7"><g id="node_expander10" style="cursor: pointer;"><path id="kity_path_148" fill="white" stroke="gray" d="M315.5,363.5A6,6,0,1,1,303.5,363.5A6,6,0,1,1,315.5,363.5"></path><path id="kity_path_149" fill="none" stroke="gray" d="M305,363.5L314,363.5"></path></g><path id="node_outline11" fill="rgb(239, 238, 246)" stroke="rgb(123, 115, 191)" d="M319.5,348.5h107a3,3,0,0,1,3,3v24a3,3,0,0,1,-3,3h-107a3,3,0,0,1,-3,-3v-24a3,3,0,0,1,3,-3z" stroke-width="1"></path><g id="node_text11" fill="black"><text id="kity_text_85" text-rendering="inherit" font-size="18" dy=".8em" font-weight="bold" y="351.7999999523163" x="336.5">线性结构</text></g></g><g id="minder_node8"><g id="node_expander6" style="cursor: pointer;" display="none"><path id="kity_path_136" fill="white" stroke="gray" d="M469.5,276.5A6,6,0,1,1,457.5,276.5A6,6,0,1,1,469.5,276.5"></path><path id="kity_path_137" fill="none" stroke="gray"></path></g><path id="node_outline7" fill="none" stroke="none" d="M474.5,262.5h47a5,5,0,0,1,5,5v18a5,5,0,0,1,-5,5h-47a5,5,0,0,1,-5,-5v-18a5,5,0,0,1,5,-5z"></path><g id="node_text7" fill="black"><text id="kity_text_77" text-rendering="inherit" font-size="18" dy=".8em" y="264.7999999523163" x="479.5">数组</text></g></g><g id="minder_node9"><g id="node_expander7" style="cursor: pointer;"><path id="kity_path_139" fill="white" stroke="gray" d="M469.5,334.5A6,6,0,1,1,457.5,334.5A6,6,0,1,1,469.5,334.5"></path><path id="kity_path_140" fill="none" stroke="gray" d="M459,334.5L468,334.5"></path></g><path id="node_outline8" fill="none" stroke="none" d="M474.5,320.5h46a5,5,0,0,1,5,5v18a5,5,0,0,1,-5,5h-46a5,5,0,0,1,-5,-5v-18a5,5,0,0,1,5,-5z" stroke-width="3"></path><g id="node_text8" fill="black"><text id="kity_text_79" text-rendering="inherit" font-size="18" dy=".8em" y="322.7999999523163" x="479.5">链表</text></g></g><g id="minder_node10"><g id="node_expander8" style="cursor: pointer;" display="none"><path id="kity_path_142" fill="white" stroke="gray" d="M469.5,392.5A6,6,0,1,1,457.5,392.5A6,6,0,1,1,469.5,392.5"></path><path id="kity_path_143" fill="none" stroke="gray"></path></g><path id="node_outline9" fill="none" stroke="none" d="M474.5,378.5h29a5,5,0,0,1,5,5v18a5,5,0,0,1,-5,5h-29a5,5,0,0,1,-5,-5v-18a5,5,0,0,1,5,-5z"></path><g id="node_text9" fill="black"><text id="kity_text_81" text-rendering="inherit" font-size="18" dy=".8em" y="380.7999999523163" x="479.5">栈</text></g></g><g id="minder_node12"><g id="node_expander15" style="cursor: pointer;"><path id="kity_path_163" fill="white" stroke="gray" d="M315.5,605.5A6,6,0,1,1,303.5,605.5A6,6,0,1,1,315.5,605.5"></path><path id="kity_path_164" fill="none" stroke="gray" d="M305,605.5L314,605.5"></path></g><path id="node_outline16" fill="rgb(239, 238, 246)" stroke="rgb(123, 115, 191)" d="M319.5,587.5h58a3,3,0,0,1,3,3v30a3,3,0,0,1,-3,3h-58a3,3,0,0,1,-3,-3v-30a3,3,0,0,1,3,-3z" stroke-width="1"></path><g id="node_text16" fill="black"><text id="kity_text_95" text-rendering="inherit" font-size="24" dy=".8em" font-weight="bold" y="589.9000000953674" x="336.5">树</text></g></g><g id="minder_node13"><g id="node_expander11" style="cursor: pointer;" display="none"><path id="kity_path_151" fill="white" stroke="gray" d="M420.5,518.5A6,6,0,1,1,408.5,518.5A6,6,0,1,1,420.5,518.5"></path><path id="kity_path_152" fill="none" stroke="gray"></path></g><path id="node_outline12" fill="none" stroke="none" d="M425.5,504.5h64a5,5,0,0,1,5,5v18a5,5,0,0,1,-5,5h-64a5,5,0,0,1,-5,-5v-18a5,5,0,0,1,5,-5z"></path><g id="node_text12" fill="black"><text id="kity_text_87" text-rendering="inherit" font-size="18" dy=".8em" y="506.7999999523163" x="430.5">二叉树</text></g></g><g id="minder_node14"><g id="node_expander12" style="cursor: pointer;" display="none"><path id="kity_path_154" fill="white" stroke="gray" d="M420.5,576.5A6,6,0,1,1,408.5,576.5A6,6,0,1,1,420.5,576.5"></path><path id="kity_path_155" fill="none" stroke="gray"></path></g><path id="node_outline13" fill="none" stroke="none" d="M425.5,562.5h28a5,5,0,0,1,5,5v18a5,5,0,0,1,-5,5h-28a5,5,0,0,1,-5,-5v-18a5,5,0,0,1,5,-5z"></path><g id="node_text13" fill="black"><text id="kity_text_89" text-rendering="inherit" font-size="18" dy=".8em" y="564.7999999523163" x="430.5">堆</text></g></g><g id="minder_node15"><g id="node_expander13" style="cursor: pointer;" display="none"><path id="kity_path_157" fill="white" stroke="gray" d="M420.5,634.5A6,6,0,1,1,408.5,634.5A6,6,0,1,1,420.5,634.5"></path><path id="kity_path_158" fill="none" stroke="gray"></path></g><path id="node_outline14" fill="none" stroke="none" d="M425.5,620.5h40a5,5,0,0,1,5,5v18a5,5,0,0,1,-5,5h-40a5,5,0,0,1,-5,-5v-18a5,5,0,0,1,5,-5z"></path><g id="node_text14" fill="black"><text id="kity_text_91" text-rendering="inherit" font-size="18" dy=".8em" y="622.7999999523163" x="430.5">B树</text></g></g><g id="minder_node16"><g id="node_expander14" style="cursor: pointer;" display="none"><path id="kity_path_160" fill="white" stroke="gray" d="M420.5,692.5A6,6,0,1,1,408.5,692.5A6,6,0,1,1,420.5,692.5"></path><path id="kity_path_161" fill="none" stroke="gray"></path></g><path id="node_outline15" fill="none" stroke="none" d="M425.5,678.5h42a5,5,0,0,1,5,5v18a5,5,0,0,1,-5,5h-42a5,5,0,0,1,-5,-5v-18a5,5,0,0,1,5,-5z"></path><g id="node_text15" fill="black"><text id="kity_text_93" text-rendering="inherit" font-size="18" dy=".8em" y="680.7999999523163" x="430.5">Trie</text></g></g><g id="minder_node17"><g id="node_expander18" style="cursor: pointer;"><path id="kity_path_172" fill="white" stroke="gray" d="M315.5,789.5A6,6,0,1,1,303.5,789.5A6,6,0,1,1,315.5,789.5"></path><path id="kity_path_173" fill="none" stroke="gray" d="M305,789.5L314,789.5"></path></g><path id="node_outline19" fill="rgb(239, 238, 246)" stroke="rgb(123, 115, 191)" d="M319.5,771.5h58a3,3,0,0,1,3,3v30a3,3,0,0,1,-3,3h-58a3,3,0,0,1,-3,-3v-30a3,3,0,0,1,3,-3z" stroke-width="1"></path><g id="node_text19" fill="black"><text id="kity_text_101" text-rendering="inherit" font-size="24" dy=".8em" font-weight="bold" y="773.9000000953674" x="336.5">图</text></g></g><g id="minder_node18"><g id="node_expander16" style="cursor: pointer;" display="none"><path id="kity_path_166" fill="white" stroke="gray" d="M420.5,760.5A6,6,0,1,1,408.5,760.5A6,6,0,1,1,420.5,760.5"></path><path id="kity_path_167" fill="none" stroke="gray"></path></g><path id="node_outline17" fill="none" stroke="none" d="M425.5,746.5h65a5,5,0,0,1,5,5v18a5,5,0,0,1,-5,5h-65a5,5,0,0,1,-5,-5v-18a5,5,0,0,1,5,-5z"></path><g id="node_text17" fill="black"><text id="kity_text_97" text-rendering="inherit" font-size="18" dy=".8em" y="748.7999999523163" x="430.5">有向图</text></g></g><g id="minder_node19"><g id="node_expander17" style="cursor: pointer;" display="none"><path id="kity_path_169" fill="white" stroke="gray" d="M420.5,818.5A6,6,0,1,1,408.5,818.5A6,6,0,1,1,420.5,818.5"></path><path id="kity_path_170" fill="none" stroke="gray"></path></g><path id="node_outline18" fill="none" stroke="none" d="M425.5,804.5h64a5,5,0,0,1,5,5v18a5,5,0,0,1,-5,5h-64a5,5,0,0,1,-5,-5v-18a5,5,0,0,1,5,-5z"></path><g id="node_text18" fill="black"><text id="kity_text_99" text-rendering="inherit" font-size="18" dy=".8em" y="806.7999999523163" x="430.5">无向图</text></g></g><g id="minder_node21"><g id="node_expander20" style="cursor: pointer;"><path id="kity_path_188" fill="white" stroke="gray" d="M469.5,450.5A6,6,0,1,1,457.5,450.5A6,6,0,1,1,469.5,450.5"></path><path id="kity_path_189" fill="none" stroke="gray" d="M459,450.5L468,450.5"></path></g><path id="node_outline21" fill="none" stroke="none" d="M474.5,436.5h46a5,5,0,0,1,5,5v18a5,5,0,0,1,-5,5h-46a5,5,0,0,1,-5,-5v-18a5,5,0,0,1,5,-5z" stroke-width="3"></path><g id="node_text21" fill="black"><text id="kity_text_185" text-rendering="inherit" font-size="18" dy=".8em" y="438.7999999523163" x="479.5">队列</text></g></g><g id="minder_node22"><g id="node_expander21" style="cursor: pointer;" display="none"><path id="kity_path_196" fill="white" stroke="gray" d="M565.5,450.5A6,6,0,1,1,553.5,450.5A6,6,0,1,1,565.5,450.5"></path><path id="kity_path_197" fill="none" stroke="gray"></path></g><path id="node_outline22" fill="none" stroke="none" d="M570.5,437.5h74a5,5,0,0,1,5,5v16a5,5,0,0,1,-5,5h-74a5,5,0,0,1,-5,-5v-16a5,5,0,0,1,5,-5z" stroke-width="3"></path><g id="node_text22" fill="black"><text id="kity_text_193" text-rendering="inherit" font-size="16" dy=".8em" y="440.09999990463257" x="575.5">优先队列</text></g></g><g id="minder_node23"><g id="node_expander22" style="cursor: pointer;" display="none"><path id="kity_path_204" fill="white" stroke="gray" d="M565.5,334.5A6,6,0,1,1,553.5,334.5A6,6,0,1,1,565.5,334.5"></path><path id="kity_path_205" fill="none" stroke="gray"></path></g><path id="node_outline23" fill="none" stroke="none" d="M570.5,321.5h58a5,5,0,0,1,5,5v16a5,5,0,0,1,-5,5h-58a5,5,0,0,1,-5,-5v-16a5,5,0,0,1,5,-5z" stroke-width="3"></path><g id="node_text23" fill="black"><text id="kity_text_201" text-rendering="inherit" font-size="16" dy=".8em" y="324.09999990463257" x="575.5">单链表</text></g></g></g></g></svg>