<svg id="kity_svg_6" xmlns="http://www.w3.org/2000/svg" xmlns:xlink="http://www.w3.org/1999/xlink" version="1.1" width="563" height="563" style="background: rgb(251, 251, 251); visibility: visible;" viewBox="0 0 563 563"><defs id="kity_defs_7"><linearGradient id="kity_linearGradient_17" x1="0" y1="0" x2="0" y2="1"><stop id="kity_stop_18" offset="0" stop-color="rgb(255, 255, 255)"></stop><stop id="kity_stop_19" offset="1" stop-color="rgb(204, 204, 204)"></stop></linearGradient><marker id="kity_marker_2" orient="auto" refX="6" refY="0" viewBox="-7 -7 14 14" markerWidth="7" markerHeight="7" markerUnits="userSpaceOnUse"><path id="kity_path_3" fill="rgb(123, 115, 191)" stroke="none" d="M6,0A6,6,0,1,1,-6,0A6,6,0,1,1,6,0"></path></marker></defs><g id="kity_g_8"><g id="minder1" text-rendering="optimize-speed"><g id="minder_connect_group1"><path id="kity_path_31" fill="none" stroke="rgb(123, 115, 191)" stroke-width="1" d="M44.5,355.5A38,241,0,0,1,82.5,114.5"></path><path id="kity_path_39" fill="none" stroke="rgb(123, 115, 191)" stroke-width="1" d="M44.5,355.5A41,91,0,0,0,85.5,446.5"></path><path id="kity_path_111" fill="none" stroke="rgb(123, 115, 191)" stroke-width="1" d="M44.5,355.5A40,47,0,0,1,84.5,308.5"></path><path id="kity_path_198" fill="none" stroke="rgb(123, 115, 191)" stroke-width="1" d="M44.5,355.5A41,173,0,0,0,85.5,528.5"></path><path id="kity_path_293" fill="none" stroke="rgb(123, 115, 191)" stroke-width="1" d="M197.5,308.5C213,308.5,213,255.5,228.5,255.5"></path><path id="kity_path_294" fill="none" stroke="rgb(123, 115, 191)" stroke-width="1" d="M197.5,308.5C212,308.5,212,297.5,226.5,297.5"></path><path id="kity_path_295" fill="none" stroke="rgb(123, 115, 191)" stroke-width="1" d="M197.5,308.5C212.5,308.5,212.5,336.5,227.5,336.5"></path><path id="kity_path_296" fill="none" stroke="rgb(123, 115, 191)" stroke-width="1" d="M197.5,308.5C212.5,308.5,212.5,371.5,227.5,371.5"></path><path id="kity_path_297" fill="none" stroke="rgb(123, 115, 191)" stroke-width="1" d="M436.5,31.5C451,31.5,451,31.5,465.5,31.5"></path><path id="kity_path_298" fill="none" stroke="rgb(123, 115, 191)" stroke-width="1" d="M286.5,114.5C316,114.5,316,31.5,345.5,31.5"></path><path id="kity_path_299" fill="none" stroke="rgb(123, 115, 191)" stroke-width="1" d="M286.5,114.5C316.5,114.5,316.5,72.5,346.5,72.5"></path><path id="kity_path_300" fill="none" stroke="rgb(123, 115, 191)" stroke-width="1" d="M436.5,144.5C444.5,144.5,444.5,114.5,452.5,114.5"></path><path id="kity_path_301" fill="none" stroke="rgb(123, 115, 191)" stroke-width="1" d="M436.5,144.5C444.5,144.5,444.5,144.5,452.5,144.5"></path><path id="kity_path_302" fill="none" stroke="rgb(123, 115, 191)" stroke-width="1" d="M436.5,144.5C444.5,144.5,444.5,174.5,452.5,174.5"></path><path id="kity_path_303" fill="none" stroke="rgb(123, 115, 191)" stroke-width="1" d="M286.5,114.5C316,114.5,316,144.5,345.5,144.5"></path><path id="kity_path_304" fill="none" stroke="rgb(123, 115, 191)" stroke-width="1" d="M286.5,114.5C318,114.5,318,199.5,349.5,199.5"></path><path id="kity_path_305" fill="none" stroke="rgb(123, 115, 191)" stroke-width="1" d="M286.5,255.5C294.5,255.5,294.5,240.5,302.5,240.5"></path><path id="kity_path_306" fill="none" stroke="rgb(123, 115, 191)" stroke-width="1" d="M286.5,255.5C294.5,255.5,294.5,270.5,302.5,270.5"></path><path id="kity_path_309" fill="none" stroke="rgb(123, 115, 191)" stroke-width="1" d="M158.5,446.5C180.5,446.5,180.5,427.5,202.5,427.5"></path><path id="kity_path_310" fill="none" stroke="rgb(123, 115, 191)" stroke-width="1" d="M158.5,446.5C180.5,446.5,180.5,465.5,202.5,465.5"></path></g><g id="minder_node1"><path id="node_outline1" fill="rgb(123, 115, 191)" stroke="rgb(123, 115, 191)" d="M25.5,337.5h38a5,5,0,0,1,5,5v26a5,5,0,0,1,-5,5h-38a5,5,0,0,1,-5,-5v-26a5,5,0,0,1,5,-5z" stroke-width="3"></path><g id="node_text1" fill="white"><text id="kity_text_22" text-rendering="inherit" font-size="24" dy=".8em" y="339.90000009536743" font-weight="bold" x="32.5">树</text></g></g><g id="kity_g_14" display="none"><path id="kity_path_15" fill="rgba(15, 0, 153, 0.5)" stroke="none" d="M213.5,311.5h91v4h-91z"></path><path id="kity_path_16" fill="none" stroke="rgb(13, 0, 128)" d="M213.5,315.5L304.5,315.5" stroke-width="1"></path></g><g id="minder_node2" opacity="1"><g id="node_expander1" style="cursor: pointer;"><path id="kity_path_36" fill="white" stroke="gray" d="M83.5,114.5A6,6,0,1,1,71.5,114.5A6,6,0,1,1,83.5,114.5"></path><path id="kity_path_37" fill="none" stroke="gray" d="M73,114.5L82,114.5"></path></g><path id="node_outline2" fill="rgb(239, 238, 246)" stroke="rgb(123, 115, 191)" d="M87.5,99.5h196a3,3,0,0,1,3,3v24a3,3,0,0,1,-3,3h-196a3,3,0,0,1,-3,-3v-24a3,3,0,0,1,3,-3z" stroke-width="1"></path><g id="node_text2" fill="black"><text id="kity_text_33" text-rendering="inherit" font-size="18" dy=".8em" y="102.79999995231628" font-weight="bold" x="104.5">二叉树 Binary Tree</text></g></g><g id="minder_node3" opacity="1"><g id="node_expander2" style="cursor: pointer;"><path id="kity_path_44" fill="white" stroke="gray" d="M86.5,446.5A6,6,0,1,1,74.5,446.5A6,6,0,1,1,86.5,446.5"></path><path id="kity_path_45" fill="none" stroke="gray" d="M76,446.5L85,446.5"></path></g><path id="node_outline3" fill="rgb(239, 238, 246)" stroke="rgb(123, 115, 191)" d="M90.5,431.5h65a3,3,0,0,1,3,3v24a3,3,0,0,1,-3,3h-65a3,3,0,0,1,-3,-3v-24a3,3,0,0,1,3,-3z" stroke-width="1"></path><g id="node_text3" fill="black"><text id="kity_text_41" text-rendering="inherit" font-size="18" dy=".8em" y="434.7999999523163" font-weight="bold" x="107.5">B树</text></g></g><g id="minder_node12" opacity="1"><g id="node_expander11" style="cursor: pointer;"><path id="kity_path_116" fill="white" stroke="gray" d="M85.5,308.5A6,6,0,1,1,73.5,308.5A6,6,0,1,1,85.5,308.5"></path><path id="kity_path_117" fill="none" stroke="gray" d="M75,308.5L84,308.5"></path></g><path id="node_outline12" fill="rgb(239, 238, 246)" stroke="rgb(123, 115, 191)" d="M89.5,293.5h105a3,3,0,0,1,3,3v24a3,3,0,0,1,-3,3h-105a3,3,0,0,1,-3,-3v-24a3,3,0,0,1,3,-3z" stroke-width="1"></path><g id="node_text12" fill="black"><text id="kity_text_113" text-rendering="inherit" font-size="18" dy=".8em" y="296.7999999523163" font-weight="bold" x="106.5">堆 Heap</text></g></g><g id="minder_node22" opacity="1"><g id="node_expander21" style="cursor: pointer;" display="none"><path id="kity_path_203" fill="white" stroke="gray" d="M86.5,528.5A6,6,0,1,1,74.5,528.5A6,6,0,1,1,86.5,528.5"></path><path id="kity_path_204" fill="none" stroke="gray"></path></g><path id="node_outline22" fill="rgb(239, 238, 246)" stroke="rgb(123, 115, 191)" d="M90.5,513.5h128a3,3,0,0,1,3,3v24a3,3,0,0,1,-3,3h-128a3,3,0,0,1,-3,-3v-24a3,3,0,0,1,3,-3z" stroke-width="1"></path><g id="node_text22" fill="black"><text id="kity_text_200" text-rendering="inherit" font-size="18" dy=".8em" y="516.7999999523163" font-weight="bold" x="107.5">字典树 Trie</text></g></g><g id="kity_g_12" display="none"><path id="kity_path_13" fill="none" stroke="rgb(71, 66, 112)" d="M89.5,512.5h128a3,3,0,0,1,3,3v24a3,3,0,0,1,-3,3h-128a3,3,0,0,1,-3,-3v-24a3,3,0,0,1,3,-3z" stroke-width="5"></path></g><g id="minder_node14" opacity="1"><g id="node_expander13" style="cursor: pointer;"><path id="kity_path_132" fill="white" stroke="gray" d="M228.5,255.5A6,6,0,1,1,216.5,255.5A6,6,0,1,1,228.5,255.5"></path><path id="kity_path_133" fill="none" stroke="gray" d="M218,255.5L227,255.5"></path></g><path id="node_outline14" fill="none" stroke="none" d="M233.5,244.5h48a5,5,0,0,1,5,5v12a5,5,0,0,1,-5,5h-48a5,5,0,0,1,-5,-5v-12a5,5,0,0,1,5,-5z" stroke-width="3"></path><g id="node_text14" fill="black"><text id="kity_text_129" text-rendering="inherit" font-size="16" dy=".8em" y="245.09999990463257" x="233.5">二叉堆</text></g></g><g id="minder_node15" opacity="1"><g id="node_expander14" style="cursor: pointer;" display="none"><path id="kity_path_140" fill="white" stroke="gray" d="M226.5,297.5A6,6,0,1,1,214.5,297.5A6,6,0,1,1,226.5,297.5"></path><path id="kity_path_141" fill="none" stroke="gray"></path></g><path id="node_outline15" fill="none" stroke="none" d="M231.5,286.5h48a5,5,0,0,1,5,5v12a5,5,0,0,1,-5,5h-48a5,5,0,0,1,-5,-5v-12a5,5,0,0,1,5,-5z" stroke-width="3"></path><g id="node_text15" fill="black"><text id="kity_text_137" text-rendering="inherit" font-size="16" dy=".8em" y="287.09999990463257" x="231.5">二项堆</text></g></g><g id="minder_node16" opacity="1"><g id="node_expander15" style="cursor: pointer;" display="none"><path id="kity_path_148" fill="white" stroke="gray" d="M227.5,336.5A6,6,0,1,1,215.5,336.5A6,6,0,1,1,227.5,336.5"></path><path id="kity_path_149" fill="none" stroke="gray"></path></g><path id="node_outline16" fill="none" stroke="none" d="M232.5,325.5h81a5,5,0,0,1,5,5v12a5,5,0,0,1,-5,5h-81a5,5,0,0,1,-5,-5v-12a5,5,0,0,1,5,-5z" stroke-width="3"></path><g id="node_text16" fill="black"><text id="kity_text_145" text-rendering="inherit" font-size="16" dy=".8em" y="326.09999990463257" x="232.5">斐波那契堆</text></g></g><g id="minder_node17" opacity="1"><g id="node_expander16" style="cursor: pointer;" display="none"><path id="kity_path_156" fill="white" stroke="gray" d="M227.5,371.5A6,6,0,1,1,215.5,371.5A6,6,0,1,1,227.5,371.5"></path><path id="kity_path_157" fill="none" stroke="gray"></path></g><path id="node_outline17" fill="none" stroke="none" d="M232.5,360.5h50a5,5,0,0,1,5,5v12a5,5,0,0,1,-5,5h-50a5,5,0,0,1,-5,-5v-12a5,5,0,0,1,5,-5z" stroke-width="3"></path><g id="node_text17" fill="black"><text id="kity_text_153" text-rendering="inherit" font-size="16" dy=".8em" y="361.09999990463257" x="232.5">左偏树</text></g></g><g id="minder_node7" opacity="1"><g id="node_expander6" style="cursor: pointer;" display="none"><path id="kity_path_76" fill="white" stroke="gray" d="M465.5,31.5A6,6,0,1,1,453.5,31.5A6,6,0,1,1,465.5,31.5"></path><path id="kity_path_77" fill="none" stroke="gray"></path></g><path id="node_outline7" fill="none" stroke="none" d="M470.5,20.5h66a5,5,0,0,1,5,5v12a5,5,0,0,1,-5,5h-66a5,5,0,0,1,-5,-5v-12a5,5,0,0,1,5,-5z" stroke-width="3"></path><g id="node_text7" fill="black"><text id="kity_text_73" text-rendering="inherit" font-size="16" dy=".8em" y="21.09999990463257" x="470.5">满二叉树</text></g></g><g id="minder_node4" opacity="1"><g id="node_expander3" style="cursor: pointer;"><path id="kity_path_52" fill="white" stroke="gray" d="M345.5,31.5A6,6,0,1,1,333.5,31.5A6,6,0,1,1,345.5,31.5"></path><path id="kity_path_53" fill="none" stroke="gray" d="M335,31.5L344,31.5"></path></g><path id="node_outline4" fill="none" stroke="none" d="M350.5,20.5h81a5,5,0,0,1,5,5v12a5,5,0,0,1,-5,5h-81a5,5,0,0,1,-5,-5v-12a5,5,0,0,1,5,-5z" stroke-width="3"></path><g id="node_text4" fill="black"><text id="kity_text_49" text-rendering="inherit" font-size="16" dy=".8em" y="21.09999990463257" x="350.5">完全二叉树</text></g></g><g id="minder_node6" opacity="1"><g id="node_expander5" style="cursor: pointer;" display="none"><path id="kity_path_68" fill="white" stroke="gray" d="M346.5,72.5A6,6,0,1,1,334.5,72.5A6,6,0,1,1,346.5,72.5"></path><path id="kity_path_69" fill="none" stroke="gray"></path></g><path id="node_outline6" fill="none" stroke="none" d="M351.5,61.5h114a5,5,0,0,1,5,5v12a5,5,0,0,1,-5,5h-114a5,5,0,0,1,-5,-5v-12a5,5,0,0,1,5,-5z" stroke-width="3"></path><g id="node_text6" fill="black"><text id="kity_text_65" text-rendering="inherit" font-size="16" dy=".8em" y="62.09999990463257" x="351.5">二叉搜索树 BST</text></g></g><g id="minder_node8"><g id="node_expander7" style="cursor: pointer;" display="none"><path id="kity_path_84" fill="white" stroke="gray" d="M452.5,114.5A6,6,0,1,1,440.5,114.5A6,6,0,1,1,452.5,114.5"></path><path id="kity_path_85" fill="none" stroke="gray"></path></g><path id="node_outline8" fill="none" stroke="none" d="M457.5,103.5h48a5,5,0,0,1,5,5v12a5,5,0,0,1,-5,5h-48a5,5,0,0,1,-5,-5v-12a5,5,0,0,1,5,-5z" stroke-width="3"></path><g id="node_text8" fill="black"><text id="kity_text_81" text-rendering="inherit" font-size="16" dy=".8em" y="104.09999990463257" x="457.5">AVL树</text></g></g><g id="minder_node9"><g id="node_expander8" style="cursor: pointer;" display="none"><path id="kity_path_92" fill="white" stroke="gray" d="M452.5,144.5A6,6,0,1,1,440.5,144.5A6,6,0,1,1,452.5,144.5"></path><path id="kity_path_93" fill="none" stroke="gray"></path></g><path id="node_outline9" fill="none" stroke="none" d="M457.5,133.5h49a5,5,0,0,1,5,5v12a5,5,0,0,1,-5,5h-49a5,5,0,0,1,-5,-5v-12a5,5,0,0,1,5,-5z" stroke-width="3"></path><g id="node_text9" fill="black"><text id="kity_text_89" text-rendering="inherit" font-size="16" dy=".8em" y="134.09999990463257" x="457.5">红黑树</text></g></g><g id="minder_node18"><g id="node_expander17" style="cursor: pointer;" display="none"><path id="kity_path_164" fill="white" stroke="gray" d="M452.5,174.5A6,6,0,1,1,440.5,174.5A6,6,0,1,1,452.5,174.5"></path><path id="kity_path_165" fill="none" stroke="gray"></path></g><path id="node_outline18" fill="none" stroke="none" d="M457.5,163.5h81a5,5,0,0,1,5,5v12a5,5,0,0,1,-5,5h-81a5,5,0,0,1,-5,-5v-12a5,5,0,0,1,5,-5z" stroke-width="3"></path><g id="node_text18" fill="black"><text id="kity_text_161" text-rendering="inherit" font-size="16" dy=".8em" y="164.09999990463257" x="457.5">树堆 Treap</text></g></g><g id="minder_node5" opacity="1"><g id="node_expander4" style="cursor: pointer;"><path id="kity_path_60" fill="white" stroke="gray" d="M345.5,144.5A6,6,0,1,1,333.5,144.5A6,6,0,1,1,345.5,144.5"></path><path id="kity_path_61" fill="none" stroke="gray" d="M335,144.5L344,144.5"></path></g><path id="node_outline5" fill="none" stroke="none" d="M350.5,133.5h81a5,5,0,0,1,5,5v12a5,5,0,0,1,-5,5h-81a5,5,0,0,1,-5,-5v-12a5,5,0,0,1,5,-5z" stroke-width="3"></path><g id="node_text5" fill="black"><text id="kity_text_57" text-rendering="inherit" font-size="16" dy=".8em" y="134.09999990463257" x="350.5">平衡二叉树</text></g></g><g id="minder_node19" opacity="1"><g id="node_expander18" style="cursor: pointer;" display="none"><path id="kity_path_179" fill="white" stroke="gray" d="M349.5,199.5A6,6,0,1,1,337.5,199.5A6,6,0,1,1,349.5,199.5"></path><path id="kity_path_180" fill="none" stroke="gray"></path></g><path id="node_outline19" fill="none" stroke="none" d="M354.5,188.5h81a5,5,0,0,1,5,5v12a5,5,0,0,1,-5,5h-81a5,5,0,0,1,-5,-5v-12a5,5,0,0,1,5,-5z" stroke-width="3"></path><g id="node_text19" fill="black"><text id="kity_text_176" text-rendering="inherit" font-size="16" dy=".8em" y="189.09999990463257" x="354.5">线索二叉树</text></g></g><g id="minder_node20"><g id="node_expander19" style="cursor: pointer;" display="none"><path id="kity_path_187" fill="white" stroke="gray" d="M302.5,240.5A6,6,0,1,1,290.5,240.5A6,6,0,1,1,302.5,240.5"></path><path id="kity_path_188" fill="none" stroke="gray"></path></g><path id="node_outline20" fill="none" stroke="none" d="M307.5,229.5h48a5,5,0,0,1,5,5v12a5,5,0,0,1,-5,5h-48a5,5,0,0,1,-5,-5v-12a5,5,0,0,1,5,-5z" stroke-width="3"></path><g id="node_text20" fill="black"><text id="kity_text_184" text-rendering="inherit" font-size="16" dy=".8em" y="230.09999990463257" x="307.5">最大堆</text></g></g><g id="minder_node21"><g id="node_expander20" style="cursor: pointer;" display="none"><path id="kity_path_195" fill="white" stroke="gray" d="M302.5,270.5A6,6,0,1,1,290.5,270.5A6,6,0,1,1,302.5,270.5"></path><path id="kity_path_196" fill="none" stroke="gray"></path></g><path id="node_outline21" fill="none" stroke="none" d="M307.5,259.5h48a5,5,0,0,1,5,5v12a5,5,0,0,1,-5,5h-48a5,5,0,0,1,-5,-5v-12a5,5,0,0,1,5,-5z" stroke-width="3"></path><g id="node_text21" fill="black"><text id="kity_text_192" text-rendering="inherit" font-size="16" dy=".8em" y="260.09999990463257" x="307.5">最小堆</text></g></g><g id="minder_node23" opacity="1"><g id="node_expander22" style="cursor: pointer;" display="none"><path id="kity_path_211" fill="white" stroke="gray" d="M202.5,427.5A6,6,0,1,1,190.5,427.5A6,6,0,1,1,202.5,427.5"></path><path id="kity_path_212" fill="none" stroke="gray"></path></g><path id="node_outline23" fill="none" stroke="none" d="M207.5,416.5h39a5,5,0,0,1,5,5v12a5,5,0,0,1,-5,5h-39a5,5,0,0,1,-5,-5v-12a5,5,0,0,1,5,-5z" stroke-width="3"></path><g id="node_text23" fill="black"><text id="kity_text_208" text-rendering="inherit" font-size="16" dy=".8em" y="417.09999990463257" x="207.5">B+树</text></g></g><g id="minder_node24" opacity="1"><g id="node_expander23" style="cursor: pointer;" display="none"><path id="kity_path_219" fill="white" stroke="gray" d="M202.5,465.5A6,6,0,1,1,190.5,465.5A6,6,0,1,1,202.5,465.5"></path><path id="kity_path_220" fill="none" stroke="gray"></path></g><path id="node_outline24" fill="none" stroke="none" d="M207.5,454.5h34a5,5,0,0,1,5,5v12a5,5,0,0,1,-5,5h-34a5,5,0,0,1,-5,-5v-12a5,5,0,0,1,5,-5z" stroke-width="3"></path><g id="node_text24" fill="black"><text id="kity_text_216" text-rendering="inherit" font-size="16" dy=".8em" y="455.09999990463257" x="207.5">B*树</text></g></g></g></g></svg>